<?xml version="1.0" standalone="no"?>
<!DOCTYPE svg PUBLIC "-//W3C//DTD SVG 20010904//EN"
 "http://www.w3.org/TR/2001/REC-SVG-20010904/DTD/svg10.dtd">
<svg version="1.0" xmlns="http://www.w3.org/2000/svg"
 width="826.000000pt" height="826.000000pt" viewBox="0 0 826.000000 826.000000"
 preserveAspectRatio="xMidYMid meet">
<metadata>
Created by potrace 1.11, written by Peter Selinger 2001-2013
</metadata>
<g transform="translate(0.000000,826.000000) scale(0.100000,-0.100000)"
fill="#000000" stroke="none">
<path d="M3735 8180 c-38 -5 -110 -14 -160 -20 -131 -16 -371 -65 -518 -106
-1048 -288 -1946 -991 -2478 -1939 -593 -1059 -681 -2338 -238 -3470 518
-1323 1704 -2291 3099 -2529 454 -77 974 -74 1430 10 1264 233 2351 1056 2917
2209 205 418 330 844 390 1325 28 226 25 747 -5 970 -71 526 -222 999 -454
1425 -629 1156 -1744 1925 -3049 2106 -128 18 -214 22 -509 24 -195 2 -386 0
-425 -5z m1965 -1560 c515 -27 907 -188 1221 -500 252 -252 377 -539 379 -872
l0 -78 -460 0 -460 0 0 38 c-1 72 -40 217 -82 302 -33 68 -59 102 -127 170
-125 125 -246 183 -448 216 -119 19 -350 14 -461 -10 -161 -35 -293 -107 -391
-212 -104 -110 -145 -216 -146 -369 0 -265 150 -414 600 -598 106 -43 222 -82
595 -202 414 -132 733 -294 970 -492 199 -167 328 -372 393 -626 30 -118 31
-129 32 -337 0 -203 -2 -221 -28 -325 -34 -131 -113 -300 -187 -397 -194 -255
-545 -459 -928 -539 -426 -89 -899 -78 -1297 28 -92 25 -301 106 -395 153 -47
23 -131 71 -187 106 -55 35 -104 64 -108 64 -3 0 -35 -27 -69 -61 -235 -226
-530 -359 -934 -419 -186 -28 -515 -28 -694 0 -428 66 -745 228 -1024 523
-266 282 -418 612 -474 1031 -19 137 -20 206 -20 915 0 842 5 926 65 1161 160
628 620 1108 1211 1263 241 64 157 61 1779 67 814 3 1485 6 1490 7 6 1 89 -2
185 -7z"/>
<path d="M2561 5900 c-338 -89 -576 -389 -668 -845 -17 -83 -18 -157 -18 -925
0 -825 0 -836 22 -937 103 -475 370 -778 747 -850 112 -21 350 -13 461 16 211
55 369 180 458 361 66 134 87 232 87 403 l0 137 463 -2 462 -3 7 -92 c15 -198
78 -344 198 -463 148 -147 337 -224 615 -251 224 -22 448 1 605 62 284 109
429 373 364 662 -57 250 -232 398 -654 555 -74 27 -171 60 -215 72 -532 148
-1055 390 -1326 616 -275 229 -404 547 -386 954 8 170 39 298 106 437 27 56
47 104 44 107 -4 3 -297 6 -652 5 -606 0 -651 -1 -720 -19z"/>
</g>
</svg>
